<?xml version="1.0" encoding="utf-8"?><!-- Uploaded to: SVG Repo, www.svgrepo.com, Generator: SVG Repo Mixer Tools -->
<svg width="800px" height="800px" viewBox="0 0 24 24" fill="none" xmlns="http://www.w3.org/2000/svg">
<path d="M16.243 5.00067C13.5746 3.66644 10.4336 3.66644 7.76519 5.00067C6.15284 5.80685 4.80381 7.05609 3.87635 8.60186L2.65914 10.6305C2.15366 11.473 2.15366 12.5255 2.65914 13.368L3.87635 15.3966C4.80381 16.9424 6.15284 18.1916 7.76519 18.9978C10.4336 20.3321 13.5746 20.3321 16.243 18.9978C17.8554 18.1916 19.2044 16.9424 20.1319 15.3966L21.3491 13.368C21.8546 12.5255 21.8545 11.473 21.3491 10.6305L20.1319 8.60186C19.2044 7.05609 17.8554 5.80685 16.243 5.00067Z" fill="#4296FF"/>
<path fill-rule="evenodd" clip-rule="evenodd" d="M12.0037 9.99927C10.8994 9.99927 10.0042 10.8941 10.0042 11.9997C10.0042 13.1043 10.8992 13.9993 12.0037 13.9993C13.1086 13.9993 14.0042 13.1039 14.0042 11.9997C14.0042 10.8945 13.1084 9.99927 12.0037 9.99927ZM8.00415 11.9997C8.00415 9.78991 9.79438 7.99927 12.0037 7.99927C14.2126 7.99927 16.0042 9.78949 16.0042 11.9997C16.0042 14.2092 14.2124 15.9993 12.0037 15.9993C9.79458 15.9993 8.00415 14.2088 8.00415 11.9997Z" fill="#152C70"/>
</svg>